# xmcd
#
# Track frame offsets: 
#        150
#        15683
#        29098
#        46924
#        59558
#        74051
#        91674
#        106594
#        119625
#        134585
#        150812
#
# Disc length: 2248 seconds
#
# Revision: 0
# Processed by: cddbd v1.5.2PL0 Copyright (c) Steve Scherf et al.
# Submitted via: ExactAudioCopy v0.99pb5
#
DISCID=9308c60b
DTITLE=DeWayne Spaw - Starting Today
DYEAR=2011
DGENRE=Country
TTITLE0=Kind of Trouble I Like
TTITLE1=Floor of My Heart
TTITLE2=What I'm Fishing For
TTITLE3=Outlaw In Us All
TTITLE4=I'm Still Hangin'
TTITLE5=Heaven Got A Hell Raiser
TTITLE6=Starting Today
TTITLE7=The Crowd Goes Wild
TTITLE8=I'm Your Biggest Fan
TTITLE9=Rock and Roll All Night
TTITLE10=The Rock
EXTD=
EXTT0=
EXTT1=
EXTT2=
EXTT3=
EXTT4=
EXTT5=
EXTT6=
EXTT7=
EXTT8=
EXTT9=
EXTT10=
PLAYORDER=
